<?xml version="1.0" encoding="UTF-8" standalone="no"?>
<svg
   xmlns:dc="http://purl.org/dc/elements/1.1/"
   xmlns:cc="http://creativecommons.org/ns#"
   xmlns:rdf="http://www.w3.org/1999/02/22-rdf-syntax-ns#"
   xmlns:svg="http://www.w3.org/2000/svg"
   xmlns="http://www.w3.org/2000/svg"
   xmlns:sodipodi="http://sodipodi.sourceforge.net/DTD/sodipodi-0.dtd"
   xmlns:inkscape="http://www.inkscape.org/namespaces/inkscape"
   width="106mm"
   height="105.99957mm"
   viewBox="0 0 106 105.99957"
   version="1.1"
   id="svg8"
   inkscape:version="1.0.1 (3bc2e813f5, 2020-09-07)"
   sodipodi:docname="waifu.svg">
  <defs
     id="defs2" />
  <sodipodi:namedview
     id="base"
     pagecolor="#ffffff"
     bordercolor="#666666"
     borderopacity="1.0"
     inkscape:pageopacity="0.0"
     inkscape:pageshadow="2"
     inkscape:zoom="1.4142136"
     inkscape:cx="176.65351"
     inkscape:cy="183.06388"
     inkscape:document-units="mm"
     inkscape:current-layer="layer2"
     inkscape:document-rotation="0"
     showgrid="false"
     inkscape:window-width="1920"
     inkscape:window-height="1052"
     inkscape:window-x="1920"
     inkscape:window-y="0"
     inkscape:window-maximized="1" />
  <metadata
     id="metadata5">
    <rdf:RDF>
      <cc:Work
         rdf:about="">
        <dc:format>image/svg+xml</dc:format>
        <dc:type
           rdf:resource="http://purl.org/dc/dcmitype/StillImage" />
        <dc:title></dc:title>
      </cc:Work>
    </rdf:RDF>
  </metadata>
  <g
     inkscape:groupmode="layer"
     id="layer2"
     inkscape:label="Trace"
     style="display:inline;opacity:1"
     transform="translate(-56.438514,-99.177556)">
    <path
       style="fill:#000000;stroke:none;stroke-width:0.271362"
       d="m 79.212059,99.355981 c 2.902523,1.319679 7.488757,4.118859 7.143212,7.824799 -1.648999,-1.31379 -5.005565,-4.68497 -7.36927,-3.33609 -2.3459,1.33874 -2.227865,6.50341 -2.669492,8.91093 -1.207293,6.58173 -1.013122,12.0355 -0.551788,18.67568 0.236993,3.41152 0.23665,7.30666 1.171259,10.59218 1.092667,3.84106 3.836842,7.10067 4.664088,10.87092 -2.182559,-2.37459 -4.150474,-6.29481 -5.019381,-9.47721 h -0.264178 c -0.663169,1.50148 1.284263,5.1216 2.113423,6.41106 -5.435091,-5.99211 -5.854712,-12.50212 -6.363915,-20.34814 -0.257758,-3.97151 -0.508568,-8.02525 0.05912,-11.98588 0.516548,-3.60394 2.18845,-6.87308 2.342122,-10.59219 h -0.264177 l -1.056712,2.78742 h -0.264178 c 0.776234,-3.5403 2.450857,-6.16192 4.226847,-9.19847 -6.156218,4.98317 -4.552341,15.2662 -9.044422,21.4631 -2.177276,3.00372 -4.929878,5.53608 -7.598788,8.03695 -1.256101,1.17713 -3.16514,2.19872 -3.698492,3.94893 h 0.264178 l 8.453695,-7.80476 1.585068,-1.11496 c -2.373296,3.94001 -5.263789,5.78357 -8.043966,9.60176 -2.133871,4.45877 -3.354966,8.20039 -2.050651,13.53379 2.425307,9.05714 12.137026,13.22461 20.397554,11.14966 v -0.27874 c -6.002546,-2.06074 -10.202447,-9.11624 -9.715461,-15.88828 0.161202,-2.24163 1.307945,-4.0267 1.790123,-6.13231 h 0.264177 c 0.4658,6.22793 2.911532,12.24038 6.720423,17.00324 2.088803,2.61181 6.35554,4.63993 6.847229,8.31068 0.222965,1.6652 -0.900506,1.92862 -3.582247,2.6891 -8.729532,2.29066 -8.514214,1.59034 -10.051745,13.25074 -0.360263,16.33216 -0.495648,10.70177 1.050331,26.91614 12.718798,0 27.034331,0.001 38.664075,0.001 -0.50139,-10.09541 0.96652,-13.09125 1.58747,-19.11246 0.31508,-3.7031 0.048,-10.19134 -0.55212,-15.05209 1.92268,1.53085 2.27613,4.2995 2.52922,6.70364 0.58277,5.53777 -0.41709,11.52435 -1.6199,16.88985 -1.40553,5.39734 -0.93142,8.87997 -0.70491,10.56859 7.49747,0 14.74252,10e-4 21.34003,10e-4 -2.07608,-7.50489 -3.71861,-14.14136 -4.6699,-20.7835 -1.43423,-6.78903 -2.71672,-11.7169 -6.5716,-17.56072 1.96892,1.26242 6.15666,3.00929 8.45368,3.06616 l -2.43254,-4.45987 0.31913,-5.57482 6.07608,6.68979 h 0.26419 v -1.9512 l 5.28355,2.78743 -1.32088,-10.31345 h -0.26419 l 0.26419,8.91974 c -1.66115,-1.4241 -1.58507,-3.48622 -1.58507,-5.57484 0,-4.0331 0.52835,-7.96142 0.52835,-11.98588 h 0.26418 l 0.52835,8.64098 h 0.26419 v -7.52602 c 2.27404,3.90657 7.80725,10.11944 3.17013,13.93708 v 0.27874 c 2.28619,-1.1487 4.04325,-3.48148 4.49102,-6.13231 l -0.30462,-0.008 -1.54462,3.07442 c 0.28848,-1.47482 1.1814,-3.74991 -0.26418,-4.73861 v -0.27874 h 0.79254 l 0.26417,-1.67245 -1.32089,-4.45987 h -0.26418 v 4.18113 l 0.52836,1.95119 h -0.26418 c -1.35549,-3.44079 -3.35797,-7.36296 -3.43431,-11.14967 l 1.05671,1.11498 h 0.26418 v -2.78742 l 1.05671,1.39371 c 3.08413,3.07735 4.63607,3.83427 10.03876,4.71351 3.69083,0.27317 7.50741,-0.68876 10.83129,1.4188 -1.77157,-3.68942 -7.24797,-4.69596 -10.56711,-6.13231 l 3.17013,2.50867 -0.26417,-0.55749 h 0.26417 l 5.54774,2.50868 v 0.27875 L 154.249,148.4348 v -0.27874 l 1.32089,-0.27875 v -0.27873 c -4.2456,0 -6.50168,-1.84165 -10.03876,-4.04872 -3.17991,-1.98409 -6.15666,-3.21808 -6.34027,-7.65843 h 0.26417 c 0.68581,1.67663 1.61281,3.04776 3.17014,3.90237 l -1.84924,-3.34489 c 0.83136,-1.14925 -1.82468,-5.38529 -2.37761,-6.6898 l 4.7976,5.03376 c 5.00944,5.33305 13.38045,9.55759 19.18839,10.1869 -1.63199,-0.16341 -16.2244,-6.2442 -19.73975,-11.47074 l -6.35966,-8.20978 h -0.26418 l 2.11343,4.18112 -1.32089,0.27874 c -0.84326,-6.02528 -4.15737,-11.72939 -6.81051,-17.00323 -0.51876,-1.03107 0.20946,-3.81744 -2.13192,-5.78047 -1.49083,-1.24993 -6.285,-1.89982 -6.78355,-2.4107 -10.77714,-5.636204 -12.23885,-4.13545 -13.86196,-4.909687 1.48124,2.117407 7.87498,-0.501173 21.19738,11.428407 4.55998,6.46822 6.95263,14.47616 8.39056,22.29933 h -0.26418 l -0.52836,-1.67245 h -0.26417 l 0.26417,4.18112 -1.84924,-6.13232 -0.79253,1.11497 -0.52836,-2.22993 h -0.26418 v 3.06616 h -0.26418 l -0.79253,-1.39371 c -0.98485,1.17183 -1.88121,0.59984 -3.17014,0.27873 l -0.26417,1.67245 -2.64178,-7.52602 h -0.26419 c 0.21188,2.8323 1.2464,5.61748 -1.0567,7.80477 -0.81235,-6.77649 -3.29721,-13.42163 -5.54774,-19.79065 l 3.96267,3.02616 4.22684,0.31874 v -3.62364 l 2.11343,1.11496 c -3.43183,-7.2152 -18.02313,-12.84308 -23.51184,-13.658335 v -0.278742 h 1.84924 v -0.278741 c -4.40965,-0.367214 -8.425943,-0.345221 -12.680529,1.114968 v 0.27874 h 0.792534 v 0.27874 l -7.66116,5.29609 2.641779,-3.3449 -3.434313,2.78742 c -0.527035,-3.11781 -6.099847,-6.330215 -7.14595,-6.48445 m 23.524969,0.07339 v 0.278741 l -3.698478,0.278742 3.698478,-0.557483 m -8.453681,8.64099 -1.056712,-2.22993 c 1.237939,0.31035 3.145832,-0.16789 3.905871,1.23067 0.444876,0.8187 -0.05785,1.7444 -0.545263,2.39297 -1.202538,1.60064 -2.757489,2.81916 -3.940478,4.45986 -0.580664,0.80515 -1.090527,2.23855 -1.927178,2.76461 -0.977987,0.61494 -4.184579,0.0228 -5.418289,0.0228 0.561642,1.99548 2.157012,1.63035 3.69849,1.11496 0.534945,0.64935 -0.101881,2.6318 -0.792534,3.90239 h -0.264177 c -2.139578,-2.30171 -3.887114,-4.74126 -4.491026,-8.08351 h 0.264178 c 0.303541,0.67012 0.619234,1.82667 1.363158,2.09252 0.691619,0.24721 1.265941,-0.6744 1.841057,-0.93647 1.626807,-0.74125 2.866067,-0.17758 3.92859,-1.99228 h -2.113424 c 0.146355,-1.56954 -0.630064,-7.85917 2.905958,-6.5999 0.947077,0.33727 1.7692,1.32968 2.641779,1.86129 m 7.132801,-1.11496 v 1.11496 h 4.22684 l -0.79253,-1.11496 c 2.81296,1.43153 0.031,4.02096 -1.06913,5.85357 -2.97993,4.9638 -7.47517,10.5225 -8.441269,16.44576 h -0.264178 v -1.67245 H 93.2239 v 0.55748 l -1.056711,0.83622 -2.905958,0.83623 0.792534,-0.55748 -0.528356,-0.83622 1.32089,-6.13233 h -0.264178 l -1.849246,4.45988 c 0.564768,-3.07813 2.564187,-8.00272 2.905958,-9.19848 2.849951,-4.13613 5.481956,-8.71527 10.302937,-10.59218 m 10.03877,0.83623 0.52834,2.50867 0.79254,-2.22994 1.32089,1.67245 c 1.99296,0.19323 2.98706,2.45009 3.75608,4.18113 2.11079,4.75053 2.15437,10.54842 1.2633,15.60953 h 0.26418 l 0.79254,-6.6898 h 0.26417 c 1.36316,5.55003 3.39839,10.24152 2.73953,16.16701 0.32254,2.32177 -0.70978,3.51665 0.95897,3.3449 l 1.84924,-6.41105 h 0.26417 c 0,2.40553 0.1527,5.18375 -0.49216,7.51376 -0.54421,1.96763 -2.11738,1.15789 -2.67797,-0.26649 l -4.49102,1.03385 -2.90596,1.75357 v 2.50868 h 0.26417 l 0.26419,-0.83623 1.32088,0.83623 0.52836,-1.11497 h 0.26417 l 1.05672,1.11497 0.52835,-1.11497 -0.79253,-0.27874 v -0.27876 l 1.32089,-1.39371 c 2.64362,0.0254 2.18027,1.14312 1.58507,3.34489 h 0.26417 c 0.71249,-1.61029 1.40332,-3.24399 3.17014,-3.62363 l -2.64178,7.24728 -0.26417,2.78741 -0.79254,-0.27873 0.52835,-2.22994 h -0.26417 c -1.58956,7.06108 -8.50653,11.46855 -14.79397,13.37959 2.23046,2.54074 2.41829,5.84577 0.79254,8.64099 l -2.37761,-1.95119 c 1.50477,1.74074 2.51313,3.93723 0,5.29609 0.91194,-2.73306 -0.29534,-3.67799 -1.84924,-5.85358 v -0.27873 c 1.17295,-2.2291 0.0568,-5.29749 3.17014,-5.57484 l -9.510406,-5.85357 7.396976,5.2961 c -0.39257,1.45196 -0.74815,5.71336 -2.90622,4.70431 -0.88473,-0.41393 -1.58797,-1.33071 -2.37734,-1.9169 l 1.84925,3.06616 2.11342,-0.55749 v 0.27874 l -1.58507,0.27875 c -2.6e-4,3.50823 -0.80944,6.92756 -2.3776,10.03469 h -0.264171 l 1.849241,-9.47722 h -0.26418 c -0.85778,3.8957 -4.256957,1.50633 -4.755196,-1.3937 h -0.264178 c 0.488993,3.82852 1.918988,7.80253 3.15402,11.4284 4.011304,6.02266 19.471544,29.43332 0.808644,3.90239 -6.833822,-9.94567 -5.784077,-22.86373 -6.340266,-25.08674 l 5.547737,6.96853 c -1.272545,-2.33418 -6.427449,-7.0555 -4.491025,-10.03469 l -0.792533,-1.39371 h 0.528355 l -0.528355,-3.34489 4.755202,3.06615 c -3.344516,-4.907 -3.359887,-4.91495 -4.226847,-6.41105 -1.35629,-2.51733 -2.977285,-6.35893 -1.849245,-9.19848 H 93.2239 c 2.05462,0.86264 2.744205,8.60674 2.113424,1.95119 h 0.264178 l 0.528356,1.39371 h 0.264178 c -0.421629,-1.41879 -0.539187,-2.27537 0.792534,-3.06616 l 0.528355,4.18113 h 0.264179 c 0.124692,-1.1866 0.460726,-1.89796 1.585067,-2.22994 l 0.528349,1.67245 h 0.26418 c 0.88024,-0.86048 1.48363,-0.40779 2.3776,0.27875 l 0.52835,-1.11497 -1.58506,-0.27874 v -0.27875 l 1.84925,-0.27874 -0.26419,-1.39371 2.64179,1.67245 v -0.83623 h 0.26417 l 0.79254,0.27875 v -0.27875 l -5.01938,-2.78741 5.28355,-4.18112 -1.32088,3.06616 1.05671,-0.27875 1.58507,-1.95119 -1.58507,3.62364 c 2.22385,-0.79413 4.1645,-1.83634 5.54773,-3.90237 h 0.26419 l -1.84925,5.01734 2.90596,-3.62364 -0.52836,1.39371 0.79253,-0.55749 -0.26417,1.11497 h 0.26417 l 0.79254,-1.39371 c 0.22402,1.28194 -0.57908,1.86757 -1.32089,2.78742 1.58137,-1.04668 2.63807,-2.40554 3.43431,-4.18113 h 0.26418 l -0.52835,2.50868 h 0.26417 l 0.79254,-1.3937 0.26417,-3.62365 h 0.26419 v 1.67245 h 0.26417 l 1.32089,-6.13229 h -0.26418 l -1.05671,4.1811 h -0.26417 l 0.79253,-9.75596 h -0.26419 c -0.12257,3.01209 -1.17347,5.93414 -2.3776,8.641 h -0.26417 l 0.52836,-3.3449 -2.3776,-0.27875 0.26417,-1.3937 h -0.26417 l -0.79254,3.90237 h -0.26418 v -5.57482 h -0.26418 l -0.52836,3.62364 h -1.58506 l 0.79253,-5.57484 h -0.26417 l -0.52836,3.06616 h -0.26418 l -0.26417,-0.83622 -0.52836,1.39371 -0.52836,-0.55749 -0.79253,0.55749 v 1.3937 l -3.17014,-1.3937 h -1.05671 l 0.52835,-0.83623 -2.90595,1.67245 0.26418,-1.39371 c -0.87549,-0.53379 -1.0686,-1.2298 -0.79254,-2.22993 l -2.377595,1.39371 c 0.21689,-5.24787 4.125665,-9.3667 7.261195,-13.02128 1.00097,-1.16653 1.69232,-2.66122 2.77756,-3.70321 l 0.26418,2.22993 h 0.52836 l 0.26417,-0.83622 h 0.26419 l 0.52835,2.22992 0.79253,-0.27874 c 1.64941,8.26943 0.51934,0.21691 0,-3.34489 l -0.52835,0.83622 h -0.26418 l 1.05672,-2.50867 m -24.304376,1.11496 h 0.264177 l 0.528357,4.18112 H 86.35527 l 1.32089,-4.18112 m 25.36108,1.67245 c -0.22613,0.91606 -0.18492,1.7313 0.79254,1.9512 l -0.26418,-1.9512 h -0.52836 m 1.84925,0.55748 1.32089,2.22994 h 0.26417 l -1.58506,-2.22994 m -43.589363,6.96854 -4.226846,11.70714 h -0.264179 c -0.09331,-1.11878 2.760673,-8.36406 0.264179,-4.73859 3.13891,-1.46814 3.449235,-5.25481 4.226846,-6.96855 m 7.66116,9.47722 c -0.737901,6.59252 2.038583,12.56176 2.64178,18.95443 H 81.33589 c -2.081195,-5.27435 -5.573706,-13.33361 -2.377603,-18.95443 m -14.529786,2.50884 c -0.421681,2.23579 -2.101774,4.13457 -2.745522,6.40688 -1.686671,5.95363 -0.643722,10.90994 0.632098,16.72867 -2.63455,-3.85524 -4.662153,-6.80474 -5.125839,-7.43469 -0.213515,-0.29007 0.184956,3.67488 0.752838,4.36398 0.562717,0.68287 1.586834,-0.67089 4.108823,3.62816 l 0.264178,1.9512 c -3.83357,-3.03934 -4.864038,-6.88825 -5.238146,-10.87404 -0.175527,-1.1354 0.0036,-2.46244 0.118068,-3.34179 0.574992,-3.80621 4.479605,-9.07025 7.233502,-11.4284 m 24.568549,4.45985 0.792534,8.36225 c -1.457999,-1.24402 -1.481246,-6.63015 -0.792534,-8.36225 m 10.567117,1.67244 1.849243,2.22994 v 0.27873 l -2.113421,-0.27873 v 0.27873 h 1.056711 v 0.27874 l -2.113423,-0.27874 1.32089,-2.50867 m 9.510403,1.11496 -0.26418,1.11498 h -0.26417 l 0.52835,-1.11498 m -24.568545,7.52604 c -1.434566,-0.78689 -2.634726,-3.55369 -2.283212,-5.2908 0.158138,-0.78188 1.313942,-2.0245 2.079002,-1.20445 0.81763,0.87609 -0.05178,5.09763 0.20421,6.49525 m 34.343125,-6.13233 v 0.27874 l 3.6985,-0.83622 -3.6985,0.55748 m -20.87005,0.27874 v 0.27875 l -2.905958,0.83623 c 0.362189,-1.83329 1.474113,-1.66437 2.905958,-1.11498 m 5.54774,0.27875 v 0.27874 l 1.58507,0.27874 v -0.27874 l -1.58507,-0.27874 m 35.66402,0.83623 1.05671,4.18112 c -1.31191,-0.55637 -1.43819,-2.87243 -1.05671,-4.18112 m 12.94069,2.37433 c 1.94303,1.2549 3.76724,2.42866 6.08012,2.64301 l 4.17264,-0.11017 m -77.34993,-2.11976 c 0.798082,1.77726 5.055574,7.77354 3.170136,9.19847 v 0.27875 l 1.585068,3.62363 h 0.264177 v -1.39371 h 0.264178 l 2.113423,8.08351 h -0.264177 l -1.849246,-6.13228 h -0.264178 v 1.3937 h -0.264177 l -4.30161,-10.59217 -0.453594,-4.45987 m 31.96553,1.11497 v 0.27874 l 1.84924,-0.83622 -1.84924,0.55748 m -14.79396,1.11496 -1.58507,1.39372 v 0.27873 c 0.94655,-0.15777 1.72852,-0.55581 1.58507,-1.67245 m -6.868626,-2.50865 c -0.05105,3.70532 2.014005,12.55673 5.283556,14.49454 m 49.13709,-11.4284 c 0.71302,1.02075 1.79113,1.08653 2.90596,0.83623 l -0.52836,-0.83623 h -2.3776 m -30.38046,2.78741 -2.3776,1.67245 v 0.27874 c 1.15076,-0.0666 2.56622,-0.47497 2.3776,-1.95119 m 25.71323,1.02215 0.0883,0.18564 -0.0883,-0.18564 m -80.133883,0.37156 h 0.264177 l 1.849247,4.7386 c -1.396524,-0.88417 -2.617687,-2.98643 -2.113424,-4.7386 m 80.310093,0.55748 -0.5688,7.23912 0.30462,0.008 c 0.19679,-2.4158 0.50173,-4.83158 0.26418,-7.24738 m -78.460848,0.83622 1.585067,1.11498 v 1.3937 H 67.598636 L 66.806102,151.222 m 32.229709,5.01735 0.264178,0.27875 -0.264178,-0.27875 m -3.962669,1.9512 v 0.27874 l 2.905958,1.95119 -2.905958,-2.22993 m -10.567117,1.3937 1.585067,2.22994 c -1.089205,-0.19763 -1.773163,-1.0386 -1.585067,-2.22994 m 20.341695,0 0.68148,0.28986 2.75284,0.82511 v -0.27874 l -3.43432,-0.83623 m 3.43432,0.83623 v 0.27874 l 1.07289,-0.32988 0.51218,-0.2276 -1.58507,0.27874 m 18.22828,-0.55748 -0.22904,5.57482 2.34246,4.18113 -3.96266,-2.50868 c -0.20157,1.19832 -4.0266,-0.97866 -4.75521,-1.3937 1.11562,-1.31929 3.16934,-0.83622 4.75521,-1.11497 l -1.05672,1.9512 c 2.4727,-1.35832 1.95439,-4.31995 2.90596,-6.6898 m -7.13281,6.13231 0.79254,0.83622 -1.05671,-0.55748 0.26417,-0.27874 m -23.247656,4.73861 h 0.264178 m 3.170135,-2.78742 0.528353,0.55748 -0.528353,-0.55748 m 2.201393,3.80956 0.0883,0.18565 -0.0883,-0.18565 m 3.08216,0.0928 v 0.27874 l 1.32089,0.55749 -1.32089,-0.83623"
       id="path151"
       sodipodi:nodetypes="ccscssccccsscccccccccccccccsccccccccccccccccccccccccccsccccccccccccccccccccccccccccccccccccccccccccccccccsccccccccccccccccccccccccccccccccccccccccccccccsccccccccccsccccccccccccccccccccccccccccccccccccccccccccccccccccccccccccccccccccccccccccccccccccccccccccccccccccccccccccccccccccccccccccccccccccccccccccccccccccccccccccccccccccccccccccccccccccccccccccccccccccccccccccscssccccccccccccccccccccccccccccccccccccccccccccccccccccccccccccccccccccccccccccccccccccccccccccccccccccccccccccccccccccccccccccccccccccccccc" />
  </g>
</svg>
